<?xml version="1.0" encoding="UTF-8" standalone="no"?><!DOCTYPE svg PUBLIC "-//W3C//DTD SVG 1.1//EN" "http://www.w3.org/Graphics/SVG/1.1/DTD/svg11.dtd"><svg width="100%" height="100%" viewBox="0 0 1837 1837" version="1.1" xmlns="http://www.w3.org/2000/svg" xmlns:xlink="http://www.w3.org/1999/xlink" xml:space="preserve" xmlns:serif="http://www.serif.com/" style="fill-rule:evenodd;clip-rule:evenodd;stroke-linejoin:round;stroke-miterlimit:2;"><rect id="Artboard3" x="0" y="0" width="1837" height="1837" style="fill:none;"/><path d="M1789,484.08l0,862.161c0,237.92 -193.161,431.08 -431.08,431.08l-862.161,0c-237.92,0 -431.08,-193.161 -431.08,-431.08l0,-862.161c0,-237.92 193.161,-431.08 431.08,-431.08l862.161,0c237.92,0 431.08,193.161 431.08,431.08Z" style="fill:#1a07f2;"/><path d="M694.737,803.848l712.938,295.635c10.179,77.554 -0.235,156.421 -30.197,228.675c-94.204,227.176 -355.123,335.134 -582.3,240.93c-227.176,-94.204 -335.134,-355.123 -240.93,-582.3c29.961,-72.254 78.414,-135.347 140.488,-182.94Z" style="fill:#ff6900;"/><path d="M855.487,622.032l465.854,-152.807c37.018,33.144 64.659,75.448 80.146,122.661c48.692,148.444 -32.294,308.493 -180.738,357.185c-148.444,48.692 -308.493,-32.294 -357.185,-180.738c-15.486,-47.213 -18.272,-97.67 -8.078,-146.3Z" style="fill:#292524;"/><circle cx="1045.727" cy="393.327" r="158.819" style="fill:#d7d3d1;"/></svg>